<svg height="496pt" viewBox="0 -36 496 496" width="496pt" xmlns="http://www.w3.org/2000/svg" xmlns:xlink="http://www.w3.org/1999/xlink"><linearGradient id="a" gradientUnits="userSpaceOnUse" x1="248" x2="248" y1="424" y2="0"><stop offset="0" stop-color="#9f2fff"/><stop offset="1" stop-color="#0bb1d3"/></linearGradient><path d="m336 232v-16h16v16zm160 64v8c0 43.054688-31.105469 78.921875-72 86.472656v33.527344h-352v-33.527344c-40.894531-7.550781-72-43.417968-72-86.472656v-8h43.054688c-6.71875-5.871094-11.054688-14.390625-11.054688-24 0-2.824219.480469-5.511719 1.175781-8.121094-.398437.015625-.777343.121094-1.175781.121094-17.648438 0-32-14.351562-32-32 0-16.664062 12.847656-30.230469 29.128906-31.710938-18.761718-19.554687-29.128906-45.105468-29.128906-72.289062v-8h48v8c0 19.894531 3.007812 39.433594 8.792969 58.304688 1.710937-15.335938 6.246093-30.242188 13.453125-43.921876l-1.207032-2.414062c-8.535156-17.074219-13.039062-36.167969-13.039062-55.242188v-12.726562h16v12.726562c0 14.289063 2.902344 28.59375 8.457031 41.777344 4.214844-4.097656 9.941407-6.503906 15.941407-6.503906 13.363281 0 23.601562 10.238281 23.601562 22.832031v2.328125c0 12.601563-10.238281 22.839844-22.832031 22.839844-6.839844 0-13.152344-2.992188-17.425781-8.0625-3.199219 7.964844-5.308594 16.320312-6.535157 24.824219 2.191407-.480469 4.457031-.761719 6.792969-.761719 7.886719 0 15.015625 2.976562 20.601562 7.71875 5.589844-9.367188 15.71875-15.71875 27.398438-15.71875 6.144531 0 11.839844 1.824219 16.71875 4.839844 16.570312-39.496094 54.9375-66.609375 98.128906-68.625.894532-5.460938 2.046875-10.855469 3.375-16.214844h-6.222656c-48.519531 0-88-39.480469-88-88v-8h24c38.414062 0 71.078125 24.785156 83.046875 59.167969 7.976563-17.351563 18.28125-33.671875 30.882813-48.375l12.140624 10.40625c-17.664062 20.609375-30.476562 44.640625-38.070312 70.296875l-1.382812 4.503906c-1.472657 5.464844-2.695313 10.992188-3.679688 16.574219 30.65625 2.9375 58.300781 18.089843 77.199219 42.304687l29.070312-55.503906c3.664063-7.015625 10.871094-11.375 18.792969-11.375s15.128906 4.359375 18.800781 11.375l86.710938 165.535156-3.253907 4.089844c-.816406 1.007812-12.503906 15.191406-35.105468 27zm-407.609375-153.105469 2.664063 5.320313c1.160156 2.335937 3.503906 3.785156 6.113281 3.785156 3.761719 0 6.832031-3.070312 6.832031-6.832031v-2.328125c0-3.769532-3.070312-6.839844-6.832031-6.839844-3.152344 0-5.398438 1.273438-6.625 3.320312zm374.503906 105.679688c-17.238281 15.59375-43.480469 31.425781-78.894531 31.425781s-61.65625-15.832031-78.894531-31.425781l-7.425781 14.167969c9.417968 9.441406 37.929687 33.257812 86.320312 33.257812 48.039062 0 76.839844-23.902344 86.296875-33.289062zm-150.054687-14.765625c14.894531 14.421875 38.527344 30.191406 71.160156 30.191406s56.265625-15.769531 71.160156-30.191406l-66.535156-127.007813c-1.816406-3.457031-7.441406-3.457031-9.25 0zm-65.289063-153.808594c-3.992187-35.953125-34.550781-64-71.550781-64h-7.550781c3.992187 35.953125 34.550781 64 71.550781 64zm-90.773437 114.246094c2.007812 4.1875 3.222656 8.808594 3.222656 13.753906 0 2.824219-.480469 5.511719-1.175781 8.121094.398437-.015625.777343-.121094 1.175781-.121094 17.648438 0 32 14.351562 32 32 0 .398438-.105469.777344-.121094 1.175781 2.609375-.695312 5.296875-1.175781 8.121094-1.175781 17.648438 0 32 14.351562 32 32 0 5.855469-1.695312 11.273438-4.449219 16h89.304688c-22.597657-11.808594-34.289063-25.992188-35.101563-27l-3.257812-4.089844 49.257812-94.039062c-16.242187-24.398438-42.019531-39.710938-70.96875-42.3125-.519531 5.707031-.785156 11.441406-.785156 17.203125v11.902343c5.671875-3.367187 8.824219-9.199218 8.863281-9.28125l14.289063 7.203126c-.410156.828124-10.449219 20.414062-31.152344 20.414062s-30.742188-19.585938-31.160156-20.425781l14.289062-7.199219c.046875.082031 3.191406 5.921875 8.863282 9.28125v-11.894531c0-5.851563.289062-11.664063.777343-17.457031-38.449219 2.925781-71.96875 29.09375-83.992187 65.941406zm43.222656 69.753906c-8.824219 0-16 7.175781-16 16s7.175781 16 16 16 16-7.175781 16-16-7.175781-16-16-16zm-56-16c0 8.824219 7.175781 16 16 16s16-7.175781 16-16-7.175781-16-16-16-16 7.175781-16 16zm8 32c-8.824219 0-16 7.175781-16 16s7.175781 16 16 16 16-7.175781 16-16-7.175781-16-16-16zm-40-72c0 8.824219 7.175781 16 16 16s16-7.175781 16-16-7.175781-16-16-16-16 7.175781-16 16zm-16 48c0 8.824219 7.175781 16 16 16s16-7.175781 16-16-7.175781-16-16-16-16 7.175781-16 16zm8 32c-8.824219 0-16 7.175781-16 16s7.175781 16 16 16 16-7.175781 16-16-7.175781-16-16-16zm-40-72c0 8.824219 7.175781 16 16 16s16-7.175781 16-16-7.175781-16-16-16-16 7.175781-16 16zm-16 56c0 8.824219 7.175781 16 16 16s16-7.175781 16-16-7.175781-16-16-16-16 7.175781-16 16zm-7.007812-82.335938c-5.207032-17.433593-8.175782-35.390624-8.839844-53.664062h-15.800782c1.800782 20.191406 10.382813 38.976562 24.640626 53.664062zm7.007812 42.335938c0-8.824219-7.175781-16-16-16s-16 7.175781-16 16 7.175781 16 16 16 16-7.175781 16-16zm431.550781 80h-300c-5.550781 9.519531-15.757812 16-27.550781 16-7.886719 0-15.015625-2.976562-20.601562-7.71875-5.589844 9.367188-15.71875 15.71875-27.398438 15.71875-14.871094 0-27.289062-10.230469-30.863281-24h-56.6875c3.992187 35.953125 34.550781 64 71.550781 64h272v16h-272v16h320v-16h-32v-16h32c37 0 67.558594-28.046875 71.550781-64zm-87.550781-152h-16v16h16zm40 56h-16v16h16zm0 0" fill="url(#a)"/></svg>